<?xml version="1.0" standalone="no"?>
<!DOCTYPE svg PUBLIC "-//W3C//DTD SVG 20010904//EN"
 "http://www.w3.org/TR/2001/REC-SVG-20010904/DTD/svg10.dtd">
<svg version="1.0" xmlns="http://www.w3.org/2000/svg"
 width="512.000000pt" height="512.000000pt" viewBox="0 0 512.000000 512.000000"
 preserveAspectRatio="xMidYMid meet">
<metadata>
Created by potrace 1.14, written by Peter Selinger 2001-2017
</metadata>
<g transform="translate(0.000000,512.000000) scale(0.100000,-0.100000)"
fill="#000000" stroke="none">
<path d="M989 4736 c-4 -39 -3 -2476 1 -2477 3 -1 98 -2 212 -3 114 -1 209 -4
211 -6 2 -3 -118 -172 -267 -377 -149 -205 -278 -382 -286 -393 -8 -12 -86
-119 -173 -238 -86 -119 -185 -257 -220 -305 -34 -49 -66 -94 -72 -100 -39
-46 -64 -87 -53 -88 7 0 278 0 603 -1 543 0 591 1 600 17 5 9 38 56 73 103 86
118 61 84 358 492 146 201 336 463 422 582 86 120 159 217 162 218 3 0 5 -429
5 -952 l0 -953 530 0 c486 1 606 4 705 21 177 30 392 121 529 225 137 103 255
246 328 399 33 69 96 240 88 240 -2 0 0 11 5 24 9 24 12 44 29 166 13 100 5
345 -14 440 -12 55 -14 67 -30 124 -102 381 -374 665 -756 790 -42 13 -92 27
-110 30 -19 3 -45 8 -59 11 -69 14 -143 18 -465 22 -192 2 -350 5 -352 7 -2 1
66 97 150 212 315 432 863 1186 884 1217 26 39 208 288 220 302 25 30 70 101
69 110 -1 9 -1155 16 -1183 7 -7 -2 -34 -34 -60 -71 -26 -36 -220 -304 -432
-596 -211 -291 -472 -651 -580 -800 -107 -148 -228 -315 -268 -369 l-73 -100
0 805 c1 442 1 911 0 1041 l0 237 -365 -1 c-267 0 -365 -3 -366 -12z m2652
-2651 c167 -34 291 -142 354 -309 33 -87 37 -115 40 -261 3 -103 -1 -146 -16
-205 -48 -189 -158 -322 -312 -376 -64 -23 -99 -26 -259 -28 l-148 -1 0 596 0
597 138 0 c76 0 166 -5 203 -13z"/>
</g>
</svg>
